<svg width="112" height="112" viewBox="0 0 112 112" fill="none" xmlns="http://www.w3.org/2000/svg" role="img" aria-labelledby="title desc">
  <title id="title">Daily Canvas Icon — Compact Tile</title>
  <desc id="desc">Compact glassy planner tile with calendar and check badge</desc>
  <defs>
    <linearGradient id="cardGrad" x1="0" y1="0" x2="1" y2="1">
      <stop offset="0%" stop-color="#4f46e5"/>
      <stop offset="55%" stop-color="#3b82f6"/>
      <stop offset="100%" stop-color="#22d3ee"/>
    </linearGradient>
    <linearGradient id="paperGrad4" x1="0" y1="0" x2="1" y2="0">
      <stop offset="0%" stop-color="#f8fafc"/>
      <stop offset="100%" stop-color="#e2e8f0"/>
    </linearGradient>
  </defs>

  <g transform="translate(10 10)">
    <rect x="8" y="6" width="78" height="78" rx="18" fill="#dbeafe" opacity="0.55"/>
    <rect x="5" y="3" width="78" height="78" rx="20" fill="#e0f2fe" opacity="0.75"/>
    <rect width="78" height="78" rx="22" fill="url(#paperGrad4)" stroke="#3b82f6" stroke-width="0.5"/>
    <rect x="12" y="26" width="36" height="9" rx="5" fill="#e2e8f0" opacity="0.9"/>
    <rect x="12" y="38" width="28" height="9" rx="5" fill="#cbd5e1" opacity="0.9"/>
    <rect x="12" y="50" width="42" height="10" rx="6" fill="url(#cardGrad)"/>

    <g transform="translate(48 22)">
      <rect x="0" y="0" width="28" height="28" rx="9" fill="#ffffff" opacity="0.85" stroke="rgba(15,23,42,0.08)" stroke-width="1.4"/>
      <path d="M7 10h14M7 16h14M7 22h10" stroke="#0f172a" stroke-width="1.5" stroke-linecap="round" opacity="0.6"/>
      <circle cx="21" cy="16" r="2.3" fill="#22c55e" opacity="0.9"/>
    </g>

    <g transform="translate(50 56)">
      <circle cx="16" cy="16" r="14.5" fill="#ffffff"/>
      <circle cx="16" cy="16" r="11" fill="#22c55e"/>
      <path d="M11.2 16.5l3.7 3.8 6.5-8.2" fill="none" stroke="white" stroke-width="3" stroke-linecap="round" stroke-linejoin="round"/>
    </g>
  </g>
</svg>
